<?xml version="1.0" encoding="utf-8"?>
<!-- Generator: Adobe Illustrator 16.0.3, SVG Export Plug-In . SVG Version: 6.00 Build 0)  -->
<!DOCTYPE svg PUBLIC "-//W3C//DTD SVG 1.1//EN" "http://www.w3.org/Graphics/SVG/1.1/DTD/svg11.dtd">
<svg version="1.1" id="Ebene_1" xmlns="http://www.w3.org/2000/svg" xmlns:xlink="http://www.w3.org/1999/xlink" x="0px" y="0px"
	 width="107.716px" height="184.252px" viewBox="0 0 107.716 184.252" enable-background="new 0 0 107.716 184.252"
	 xml:space="preserve">
<g>
	<path d="M16.942,130.711v-12.146l-4.419,11.905h-2.282l-4.395-12.049v12.289H2.844v-17.018h4.179l4.467,12.121l4.491-12.121h3.963
		v17.018H16.942z"/>
	<path d="M33.113,130.903c-1.297,0-2.018-0.816-2.114-1.753c-0.576,1.009-2.017,1.873-3.794,1.873c-2.978,0-4.515-1.873-4.515-3.913
		c0-2.376,1.849-3.744,4.227-3.912l3.674-0.264v-0.769c0-1.176-0.408-1.968-2.113-1.968c-1.393,0-2.21,0.624-2.282,1.776H23.29
		c0.168-2.809,2.402-4.057,5.188-4.057c2.137,0,3.963,0.672,4.683,2.544c0.313,0.792,0.36,1.681,0.36,2.521v4.632
		c0,0.576,0.192,0.792,0.697,0.792c0.192,0,0.384-0.048,0.384-0.048v2.209C34.098,130.783,33.833,130.903,33.113,130.903z
		 M30.591,125.166l-3.17,0.24c-0.913,0.072-1.802,0.624-1.802,1.633c0,0.96,0.841,1.56,1.777,1.56c1.874,0,3.194-1.008,3.194-2.856
		V125.166z"/>
	<path d="M43.384,120.895c-2.113,0-3.218,1.512-3.218,3.528v6.288H37.14v-12.481h2.546l0.264,1.872
		c0.576-1.439,2.065-2.04,3.53-2.04c0.313,0,0.625,0.024,0.937,0.072v2.88C44.081,120.942,43.72,120.895,43.384,120.895z"/>
	<path d="M51.832,130.879c-2.522,0-3.771-1.44-3.771-3.84v-6.337h-2.282v-2.473h2.282v-3.168l3.002-0.744v3.912h3.146v2.473h-3.146
		v6.072c0,0.96,0.432,1.368,1.393,1.368c0.624,0,1.128-0.023,1.945-0.12v2.521C53.561,130.759,52.721,130.879,51.832,130.879z"/>
	<path d="M56.775,116.502v-3.097h3.219v3.097H56.775z M56.872,130.711v-12.481h3.05v12.481H56.872z"/>
	<path d="M71.037,130.711v-7.656c0-1.465-0.48-2.353-2.065-2.353c-1.057,0-1.753,0.672-2.161,1.584
		c-0.433,0.984-0.408,2.28-0.408,3.336v5.089h-3.003v-12.481h2.522l0.216,1.608c0.744-1.32,2.233-1.92,3.675-1.92
		c2.666,0,4.227,1.872,4.227,4.464v8.329H71.037z"/>
	<path d="M12.571,156.224l-2.834-6.433H5.966v6.433H2.844v-17.018h7.181c4.059,0,5.908,2.544,5.908,5.28
		c0,2.28-1.249,4.081-3.123,4.776l3.123,6.961H12.571z M10.025,141.918H5.942v5.089h4.131c1.753,0,2.762-0.912,2.762-2.521
		C12.835,143.118,11.778,141.918,10.025,141.918z"/>
	<path d="M27.697,154.592c-0.865,1.056-2.474,1.944-4.372,1.944c-1.897,0-3.506-0.889-4.371-1.944
		c-0.937-1.177-1.465-2.496-1.465-4.608s0.528-3.433,1.465-4.608c0.865-1.057,2.474-1.944,4.371-1.944
		c1.897,0,3.507,0.888,4.372,1.944c0.937,1.176,1.465,2.496,1.465,4.608S28.633,153.415,27.697,154.592z M25.223,146.839
		c-0.408-0.432-1.081-0.792-1.897-0.792c-0.816,0-1.489,0.36-1.897,0.792c-0.721,0.792-0.889,1.968-0.889,3.145
		c0,1.176,0.168,2.352,0.889,3.144c0.408,0.433,1.081,0.793,1.897,0.793c0.817,0,1.489-0.36,1.897-0.793
		c0.721-0.792,0.889-1.968,0.889-3.144C26.111,148.807,25.943,147.631,25.223,146.839z"/>
	<path d="M36.602,156.392c-2.522,0-3.771-1.44-3.771-3.84v-6.337h-2.282v-2.473h2.282v-3.168l3.002-0.744v3.912h3.146v2.473h-3.146
		v6.072c0,0.96,0.432,1.368,1.393,1.368c0.624,0,1.128-0.023,1.945-0.12v2.521C38.331,156.271,37.49,156.392,36.602,156.392z"/>
	<path d="M49.297,156.224v-7.705c0-1.439-0.48-2.328-2.065-2.328c-1.801,0-2.57,1.921-2.57,3.457v6.576H41.66v-17.329h3.002v6.168
		c0.721-1.056,2.114-1.632,3.411-1.632c2.666,0,4.227,1.896,4.227,4.464v8.329H49.297z"/>
	<path d="M2.844,181.735v-17.018H5.99v17.018H2.844z"/>
	<path d="M17.142,181.735v-7.656c0-1.465-0.48-2.353-2.065-2.353c-1.057,0-1.753,0.672-2.162,1.584
		c-0.432,0.984-0.408,2.28-0.408,3.336v5.089H9.505v-12.481h2.521l0.216,1.608c0.745-1.32,2.233-1.92,3.675-1.92
		c2.666,0,4.227,1.872,4.227,4.464v8.329H17.142z"/>
	<path d="M23.434,167.526v-3.097h3.218v3.097H23.434z M23.53,181.735v-12.481h3.05v12.481H23.53z"/>
	<path d="M34.749,181.903c-2.522,0-3.771-1.44-3.771-3.84v-6.337h-2.282v-2.473h2.282v-3.168l3.002-0.744v3.912h3.146v2.473H33.98
		v6.072c0,0.96,0.432,1.368,1.393,1.368c0.624,0,1.128-0.023,1.945-0.12v2.521C36.478,181.783,35.638,181.903,34.749,181.903z"/>
	<path d="M39.693,167.526v-3.097h3.218v3.097H39.693z M39.789,181.735v-12.481h3.05v12.481H39.789z"/>
	<path d="M55.876,181.928c-1.297,0-2.018-0.816-2.114-1.753c-0.576,1.009-2.017,1.873-3.794,1.873c-2.978,0-4.515-1.873-4.515-3.913
		c0-2.376,1.849-3.744,4.227-3.912l3.674-0.264v-0.769c0-1.176-0.408-1.968-2.113-1.968c-1.393,0-2.21,0.624-2.282,1.776h-2.906
		c0.168-2.809,2.402-4.057,5.188-4.057c2.137,0,3.963,0.672,4.683,2.544c0.313,0.792,0.36,1.681,0.36,2.521v4.632
		c0,0.576,0.192,0.793,0.697,0.793c0.192,0,0.384-0.049,0.384-0.049v2.209C56.861,181.808,56.597,181.928,55.876,181.928z
		 M53.354,176.19l-3.17,0.24c-0.913,0.072-1.802,0.624-1.802,1.633c0,0.96,0.841,1.56,1.777,1.56c1.874,0,3.194-1.008,3.194-2.856
		V176.19z"/>
	<path d="M64.37,181.903c-2.521,0-3.771-1.44-3.771-3.84v-6.337h-2.282v-2.473H60.6v-3.168l3.002-0.744v3.912h3.146v2.473h-3.146
		v6.072c0,0.96,0.433,1.368,1.393,1.368c0.625,0,1.129-0.023,1.945-0.12v2.521C66.1,181.783,65.259,181.903,64.37,181.903z"/>
	<path d="M69.313,167.526v-3.097h3.219v3.097H69.313z M69.409,181.735v-12.481h3.051v12.481H69.409z"/>
	<path d="M82.253,181.735h-3.194l-4.636-12.481h3.17l3.123,8.785l2.954-8.785h3.098L82.253,181.735z"/>
	<path d="M98.945,176.431h-8.358c-0.023,0.96,0.313,1.872,0.913,2.448c0.433,0.408,1.032,0.769,1.85,0.769
		c0.864,0,1.393-0.168,1.825-0.601c0.264-0.264,0.48-0.6,0.601-1.056h2.882c-0.072,0.744-0.576,1.728-1.057,2.304
		c-1.057,1.248-2.618,1.753-4.203,1.753c-1.705,0-2.954-0.601-3.939-1.536c-1.248-1.2-1.921-2.953-1.921-4.993
		c0-1.992,0.601-3.769,1.801-4.992c0.938-0.96,2.282-1.584,3.987-1.584c1.85,0,3.53,0.744,4.563,2.304
		c0.912,1.368,1.129,2.784,1.081,4.345C98.97,175.591,98.945,176.167,98.945,176.431z M95.198,172.063
		c-0.408-0.432-1.032-0.72-1.897-0.72c-0.912,0-1.657,0.384-2.089,0.96c-0.433,0.552-0.625,1.128-0.648,1.944h5.403
		C95.943,173.311,95.679,172.591,95.198,172.063z"/>
</g>
<rect x="2.834" y="2.835" width="102.048" height="8.504"/>
<rect x="2.833" y="87.874" width="102.048" height="8.504"/>
</svg>
